/* XPM */
static char * collectible_xpm[] = {
"64 64 10 1",
" 	c #847875",
".	c #9A9BA7",
"+	c #888398",
"@	c #513E45",
"#	c #6C595C",
"$	c #694343",
"%	c #934E48",
"&	c #AB9B8E",
"*	c #B86343",
"=	c #BC8563",
" .++++++++++++++ .++++++++++++++ .++++++++++++++ .++++++++++++++",
" .++++++++++++++ .++++++++++++++ .++++++++++++++ .++++++++++++++",
" .++++++++++++++ .++++++++++++++ .++++++++++++++ .++++++++++++++",
" .++++++++++++++ .++++++++++++++ .++++++++++++++ .++++++++++++++",
" .++++++++++++++ .++++++++++++++ .++++++++++++++ .++++++++++++++",
" .++++++++++++++ .++++++++++++++ .++++++++++++++ .++++++++++++++",
" .++++++++++++++ .++++++++++++++ .++++++++++++++ .++++++++++++++",
" .++++++++++++++ .++++++++++++++ .++++++++++++++ .++++++++++++++",
" .++++++++++++++ .++++++++++++++ .++++++++++++++ .++++++++++++++",
" .++++++++++++++ .++++++++++++++ .++++++++++++++ .++++++++++++++",
" .++++++++++++++ .++++++++++++++ .++++++++++++++ .++++++++++++++",
" .++++++++++++++ .++++++++++++++ .++++++++++++++ .++++++++++++++",
" .++++++++++++++ .++++++++++++++ .++++++++++++++ .++++++++++++++",
" .++++++++++++++ .++++++++++++++ .++++++++++++++ .++++++++++++++",
" ............... ............... ............... ...............",
"                                                                ",
" .++++++++++++++ .++++++++++++++ .++++++++++++++ .++++++++++++++",
" .++++++++++++++ .++++++++++++++ .++++++++++++++ .++++++++++++++",
" .++++++++++++++ .++++++++++++++ .++++++++++++++ .++++++++++++++",
" .++++++++++++++ .+++++@@+++++++ .+++++++@@+++++ .++++++++++++++",
" .++++++++++++++ .++++@##@$$$$$$$$$$$$$$@##@++++ .++++++++++++++",
" .++++++++++++++ .++++@  @%%%%%%%%%%%%%%#  @++++ .++++++++++++++",
" .++++++++++++++ .++++@&&#%%%%%%%%%%%%%%#&&@++++ .++++++++++++++",
" .++++++++++++++ .++++@&&#**************#&&@++++ .++++++++++++++",
" .++++++++++++++ .++++@&&#%%%%%%%%%%%%%%#&&@++++ .++++++++++++++",
" .++++++++++++++ .++++@&&#**************#&&@++++ .++++++++++++++",
" .++++++++++++++ .++++@  #==============#  @++++ .++++++++++++++",
" .++++++++++++++ .++++@  @&&&&&&&&&&&&&&@  @++++ .++++++++++++++",
" .++++++++++++++ .++++@#                  #@++++ .++++++++++++++",
" .++++++++++++++ .++++@####################@++++ .++++++++++++++",
" ............... .....@@@@@@@@@@@@@@@@@@@@@@.... ...............",
"                      @########&&&&########@                    ",
" .++++++++++++++ .++++@       &    &       @++++ .++++++++++++++",
" .++++++++++++++ .++++@  @@##@  @@  @##@@  @++++ .++++++++++++++",
" .++++++++++++++ .++++@  @$$$@# @@ #@$$$@  @++++ .++++++++++++++",
" .++++++++++++++ .++++@  @%%%%@####@%%%%@  @++++ .++++++++++++++",
" .++++++++++++++ .++++@  @*****@@@@*****@  @++++ .++++++++++++++",
" .++++++++++++++ .++++@  @&&&&&&&&&&&&&&@  @++++ .++++++++++++++",
" .++++++++++++++ .++++@#                  #@++++ .++++++++++++++",
" .++++++++++++++ .+++#@####################@#+++ .++++++++++++++",
" .++++++++++++++ .++++#@@@@@@@@@@@@@@@@@@@@#++++ .++++++++++++++",
" .++++++++++++++ .+++++####################+++++ .++++++++++++++",
" .++++++++++++++ .++++++++++++++ .++++++++++++++ .++++++++++++++",
" .++++++++++++++ .++++++++++++++ .++++++++++++++ .++++++++++++++",
" .++++++++++++++ .++++++++++++++ .++++++++++++++ .++++++++++++++",
" .++++++++++++++ .++++++++++++++ .++++++++++++++ .++++++++++++++",
" ............... ............... ............... ...............",
"                                                                ",
" .++++++++++++++ .++++++++++++++ .++++++++++++++ .++++++++++++++",
" .++++++++++++++ .++++++++++++++ .++++++++++++++ .++++++++++++++",
" .++++++++++++++ .++++++++++++++ .++++++++++++++ .++++++++++++++",
" .++++++++++++++ .++++++++++++++ .++++++++++++++ .++++++++++++++",
" .++++++++++++++ .++++++++++++++ .++++++++++++++ .++++++++++++++",
" .++++++++++++++ .++++++++++++++ .++++++++++++++ .++++++++++++++",
" .++++++++++++++ .++++++++++++++ .++++++++++++++ .++++++++++++++",
" .++++++++++++++ .++++++++++++++ .++++++++++++++ .++++++++++++++",
" .++++++++++++++ .++++++++++++++ .++++++++++++++ .++++++++++++++",
" .++++++++++++++ .++++++++++++++ .++++++++++++++ .++++++++++++++",
" .++++++++++++++ .++++++++++++++ .++++++++++++++ .++++++++++++++",
" .++++++++++++++ .++++++++++++++ .++++++++++++++ .++++++++++++++",
" .++++++++++++++ .++++++++++++++ .++++++++++++++ .++++++++++++++",
" .++++++++++++++ .++++++++++++++ .++++++++++++++ .++++++++++++++",
" ............... ............... ............... ...............",
"                                                                "};
