/* XPM */
static char * collectible_xpm[] = {
"32 32 10 1",
" 	c None",
".	c #513E45",
"+	c #8D794E",
"@	c #6C595C",
"#	c #5B455F",
"$	c #888398",
"%	c #9A9BA7",
"&	c #D2C9A5",
"*	c #B86343",
"=	c #BC8563",
"                                ",
"                                ",
"                                ",
"                                ",
"                                ",
"                                ",
"                                ",
"                                ",
"                                ",
"              ...               ",
"             .+++.              ",
"             .@@@.              ",
"              .#.               ",
"              .$.               ",
"              .$.               ",
"             .%%%.              ",
"            .&&**%.             ",
"           .%&===*%.            ",
"           .%*===*%.            ",
"           .%*****%.            ",
"            .%***%.             ",
"            @.$$$.@             ",
"             @...@              ",
"                                ",
"                                ",
"                                ",
"                                ",
"                                ",
"                                ",
"                                ",
"                                ",
"                                "};
