/* XPM */
static char * exit_xpm[] = {
"32 32 9 1",
" 	c None",
".	c #513E45",
"+	c #6C595C",
"@	c #694343",
"#	c #847875",
"$	c #934E48",
"%	c #AB9B8E",
"&	c #B86343",
"*	c #BC8563",
"                                ",
"                                ",
"                                ",
"                                ",
"                                ",
"                                ",
"       ..                ..     ",
"      .++.@@@@@@@@@@@@@@.++.    ",
"      .##.$$$$$$$$$$$$$$+##.    ",
"      .%%+$$$$$$$$$$$$$$+%%.    ",
"      .%%+&&&&&&&&&&&&&&+%%.    ",
"      .%%+$$$$$$$$$$$$$$+%%.    ",
"      .%%+&&&&&&&&&&&&&&+%%.    ",
"      .##+**************+##.    ",
"      .##.%%%%%%%%%%%%%%.##.    ",
"      .+##################+.    ",
"      .++++++++++++++++++++.    ",
"      ......................    ",
"      .++++++++%%%%++++++++.    ",
"      .#######%####%#######.    ",
"      .##..++.##..##.++..##.    ",
"      .##.@@@.+#..#+.@@@.##.    ",
"      .##.$$$$.++++.$$$$.##.    ",
"      .##.&&&&&....&&&&&.##.    ",
"      .##.%%%%%%%%%%%%%%.##.    ",
"      .+##################+.    ",
"     +.++++++++++++++++++++.+   ",
"      +....................+    ",
"       ++++++++++++++++++++     ",
"                                ",
"                                ",
"                                "};
