/* XPM */
static char * exit_xpm[] = {
"64 64 8 1",
" 	c #847875",
".	c #9A9BA7",
"+	c #888398",
"@	c #5B455F",
"#	c #71627D",
"$	c #49343D",
"%	c #513E45",
"&	c #6C595C",
" .++++++++++++++ .++++++++++++++ .++++++++++++++ .++++++++++++++",
" .++++++++++++++ .++++++++++++++ .++++++++++++++ .++++++++++++++",
" .++++++++++++++ .@@@@@@@@@@@@@@@@@@@@@@@@@@@@++ .++++++++++++++",
" .++++++++++++++##++++++++++++++++++++++++++++## .++++++++++++++",
" .+++++++++++++#++++++++++++++++++++++++++++++++#.++++++++++++++",
" .++++++++++++#++++++++++++++++++++++++++++++++++#++++++++++++++",
" .+++++++++++#++++++++++++++++++++++++++++++++++++#+++++++++++++",
" .++++++++++#++++++++.......................+++++++#++++++++++++",
" .+++++++++#+++++++..#######################..++++++#+++++++++++",
" .++++++++#++++++###@######################@###++++++#++++++++++",
" .+++++++#++++++####@######################@####++++++#+++++++++",
" .+++++++#++++.#####@######################@#####.++++#+++++++++",
" .+++++++#+++.#####@@######################@@#####.+++#+++++++++",
" .+++++++#++.#####@@@######################@@@#####.++#+++++++++",
" ........#++#####@@@@@@@@@@@@@@@@@@@@@@@@@@@@@@#####++#.........",
"         #+######@@@$$$$$$$$$$$$$$$$$$$$$$$$@@@######+#         ",
" .++++++@@#######@@@$$$$$$$$$$$$$$$$$$$$$$$$@@@#######@@++++++++",
" .+++++@.@#######@+@$$$$$$$$$$$$$$$$$$$$$$$$@+@#######@.@+++++++",
" .+++++@.@#######@+@$$$$$$$$$$$$$$$$$$$$$$$$@+@#######@.@+++++++",
" .+++++@.@#######@+@$$$$$$$$$$$$$$$$$$$$$$$$@+@#######@.@+++++++",
" .+++++@.@@#####@@+@$$$$$$$$$$$$$$$$$$$$$$$$@+@@#####@@.@+++++++",
" .+++++@.@@@###@@@+@$$$$$$$$$$$$$$$$$$$$$$$$@+@@@###@@@.@+++++++",
" .+++++@...........@$$$$$$$$$$$$$$$$$$$$$$$$@...........@+++++++",
" .+++++@###########@$$$$$$$$$$$$$$$$$$$$$$$$@###########@+++++++",
" .+++++@@#########@@$$$$$$$$$$$$$$$$$$$$$$$$@@#########@@+++++++",
" .+++++@@@@@@@@@@@@@$$$$$$$$$$$$$$$$$$$$$$$$@@@@@@@@@@@@@+++++++",
" .++++++@@@@@@@@@@@$$$$$$$$$$$$$$$$$$$$$$$$$$@@@@@@@@@@@++++++++",
" .+++++++@##+.+##@$$$$$$$$$$$$$$$$$$$$$$$$$$$$@##+.+##@+++++++++",
" .+++++++@##+.+##@$$$$$$$$$$$$$$$$$$$$$$$$$$$$@##+.+##@+++++++++",
" .+++++++@##+.+##@$$$$$$$$$$$$$$$$$$$$$$$$$$$$@##+.+##@+++++++++",
" ........@##+.+##@$$$$$$$$$$$$$$$$$$$$$$$$$$$$@##+.+##@.........",
"         @##+.+##@$$$$$$$$$$$$$$$$$$$$$$$$$$$$@##+.+##@         ",
" .+++++++@##+.+##@$$$$$$$$$$$$$$$$$$$$$$$$$$$$@##+.+##@+++++++++",
" .+++++++@##+.+##@$$$$$$$$$$$$$$$$$$$$$$$$$$$$@##+.+##@+++++++++",
" .+++++++@##+.+##@$$$$$$$$$$$$$$$$$$$$$$$$$$$$@##+.+##@+++++++++",
" .+++++++@##+.+##@$$$$$$$$$$$$$$$$$$$$$$$$$$$$@##+.+##@+++++++++",
" .+++++++@##+.+##@$$$$$$$$$$$$$$$$$$$$$$$$$$$$@##+.+##@+++++++++",
" .+++++++@##+.+##@$$$$$$$$$$$$$$$$$$$$$$$$$$$$@##+.+##@+++++++++",
" .+++++++@##+.+##@$$$$$$$$$$$$$$$$$$$$$$$$$$$$@##+.+##@+++++++++",
" .+++++++@##+.+##@$$$$$$$$$$$$$$$$$$$$$$$$$$$$@##+.+##@+++++++++",
" .+++++++@##+.+##@$$$$$$$$$$$$$$$$$$$$$$$$$$$$@##+.+##@+++++++++",
" .+++++++@##+.+##@$$$$$$$$$$$$$$$$$$$$$$$$$$$$@##+.+##@+++++++++",
" .+++++++@##+.+##@$$$$$$$$$$$$$$$$$$$$$$$$$$$$@##+.+##@+++++++++",
" .+++++++@##+.+##@$$$$$$$$$$$$$$$$$$$$$$$$$$$$@##+.+##@+++++++++",
" .+++++++@##+.+##@$$$$$$$$$$$$$$$$$$$$$$$$$$$$@##+.+##@+++++++++",
" .+++++++@##+.+##@$$$$$$$$$$$$$$$$$$$$$$$$$$$$@##+.+##@+++++++++",
" .......@@##+.+##@@%%%%%%%%%%%%%%%%%%%%%%%%%%@@##+.+##@@........",
"       @+@##+.+##@+@%%%%%%%%%%%%%%%%%%%%%%%%@+@##+.+##@+@       ",
" .+++++@+@##+.+##@+@@@@@@@@@@@@@@@@@@@@@@@@@@+@##+.+##@+@+++++++",
" .+++++@+@##+.+##@+@@@@@@@@@@@@@@@@@@@@@@@@@@+@##+.+##@+@+++++++",
" .+++++@+@##+.+##@+@&&&&&&&&&&&&&&&&&&&&&&&&@+@##+.+##@+@+++++++",
" .+++++@++@#+.+#@++@&&&&&&&&&&&&&&&&&&&&&&&&@++@#+.+#@++@+++++++",
" .+++++@++@#+.+#@++@########################@++@#+.+#@++@+++++++",
" .+++++@+++@@@@@+++@########################@+++@@@@@+++@+++++++",
" .+++++@+++++++++++@++++++++++++++++++++++++@+++++++++++@+++++++",
" .+++++@+++++++++++@++++++++++++++++++++++++@+++++++++++@+++++++",
" .+++++@...........@++++++++++++ .++++++++++@...........@+++++++",
" .+++++@###########@++++++++++++ .++++++++++@###########@+++++++",
" .+++++@###########@++++++++++++ .++++++++++@###########@+++++++",
" .+++++@###########@++++++++++++ .++++++++++@###########@+++++++",
" .+++++@###########@++++++++++++ .++++++++++@###########@+++++++",
" .+++++@@@@@@@@@@@@@++++++++++++ .++++++++++@@@@@@@@@@@@@+++++++",
" ............... ............... ............... ...............",
"                                                                "};
