/* XPM */
static char * floor_xpm[] = {
"32 32 3 1",
" 	c #847875",
".	c #9A9BA7",
"+	c #888398",
" .++++++++++++++ .++++++++++++++",
" .++++++++++++++ .++++++++++++++",
" .++++++++++++++ .++++++++++++++",
" .++++++++++++++ .++++++++++++++",
" .++++++++++++++ .++++++++++++++",
" .++++++++++++++ .++++++++++++++",
" .++++++++++++++ .++++++++++++++",
" .++++++++++++++ .++++++++++++++",
" .++++++++++++++ .++++++++++++++",
" .++++++++++++++ .++++++++++++++",
" .++++++++++++++ .++++++++++++++",
" .++++++++++++++ .++++++++++++++",
" .++++++++++++++ .++++++++++++++",
" .++++++++++++++ .++++++++++++++",
" ............... ...............",
"                                ",
" .++++++++++++++ .++++++++++++++",
" .++++++++++++++ .++++++++++++++",
" .++++++++++++++ .++++++++++++++",
" .++++++++++++++ .++++++++++++++",
" .++++++++++++++ .++++++++++++++",
" .++++++++++++++ .++++++++++++++",
" .++++++++++++++ .++++++++++++++",
" .++++++++++++++ .++++++++++++++",
" .++++++++++++++ .++++++++++++++",
" .++++++++++++++ .++++++++++++++",
" .++++++++++++++ .++++++++++++++",
" .++++++++++++++ .++++++++++++++",
" .++++++++++++++ .++++++++++++++",
" .++++++++++++++ .++++++++++++++",
" ............... ...............",
"                                "};
