/* XPM */
static char *floor[] = {
/* width height num_colors chars_per_pixel */
"16 16 4 1",
/* colors */
". c #2E7D32",
"X c #388E3C",
"o c #1B5E20",
"O c #43A047",
/* pixels */
".X.X.X.X.X.X.X.X",
"X.X.X.X.X.X.X.X.",
".X.X.X.X.X.X.X.X",
"X.X.X.X.X.X.X.X.",
".X.X.X.X.X.X.X.X",
"X.X.X.X.X.X.X.X.",
".X.X.X.X.X.X.X.X",
"X.X.X.X.X.X.X.X.",
".X.X.X.X.X.X.X.X",
"X.X.X.X.X.X.X.X.",
".X.X.X.X.X.X.X.X",
"X.X.X.X.X.X.X.X.",
".X.X.X.X.X.X.X.X",
"X.X.X.X.X.X.X.X.",
".X.X.X.X.X.X.X.X",
"X.X.X.X.X.X.X.X."
};
