/* XPM */
static char * player_xpm[] = {
"32 32 6 1",
" 	c None",
".	c #513E45",
"+	c #8A996D",
"@	c #516C5E",
"#	c #D2C9A5",
"$	c #6C595C",
"                                ",
"                                ",
"                                ",
"                                ",
"                                ",
"                                ",
"                                ",
"                                ",
"                                ",
"             .......            ",
"            .+@#####.           ",
"           .#+@@####+.          ",
"          .##@+#@##+#+.         ",
"         .##@+####+++#+.        ",
"        .+#######+++#++.        ",
"        .+++#####++##++.        ",
"        .+@###@@###@+++.        ",
"        .@..#@...#@@+++.        ",
"        .@$.#@$..#@++@..        ",
"         .@#+#$$$++++@.         ",
"         .+@..###++@@.$         ",
"         .+#####+@@..$          ",
"          .#.#.....$$           ",
"          .....$$$              ",
"                                ",
"                                ",
"                                ",
"                                ",
"                                ",
"                                ",
"                                ",
"                                "};
