/* XPM */
static char *player[] = {
/* width height num_colors chars_per_pixel */
"16 16 6 1",
/* colors */
". c None",
"X c #FFD700",
"o c #FF6347",
"O c #000000",
"+ c #FFA500",
"# c #1E90FF",
/* pixels */
"................",
"......XXXX......",
".....XXXXXX.....",
".....XXXXXX.....",
"......XXXX......",
".....oooooo.....",
"....oooooooo....",
"....oooooooo....",
"....oooooooo....",
".....oooooo.....",
"......####......",
".....######.....",
".....O....O.....",
".....O....O.....",
".....O....O.....",
"................"
};
