/* XPM */
static char * player_xpm[] = {
"64 64 15 1",
" 	c #847875",
".	c #9A9BA7",
"+	c #888398",
"@	c #E5D972",
"#	c #B29547",
"$	c #AF7F60",
"%	c #000000",
"&	c #E4C094",
"*	c #44001B",
"=	c #63788E",
"-	c #141728",
";	c #790C25",
">	c #37435C",
",	c #DCD0B8",
"'	c #AA222B",
" .++++++++++++++ .++++++++++++++ .++++++++++++++ .++++++++++++++",
" .++++++++++++++ .++++++++++++++ .++++++++++++++ .++++++++++++++",
" .++++++++++++++ .++++++++++++++ .++++++++++++++ .++++++++++++++",
" .++++++++++++++ .++++++++++++++ .++++++++++++++ .++++++++++++++",
" .++++++++++++++ .++++++++++++++ .++++++++++++++ .++++++++++++++",
" .++++++++++++++ .++++++++++++++ .++++++++++++++ .++++++++++++++",
" .++++++++++++++ .++++++++++++++ .++++++++++++++ .++++++++++++++",
" .++++++++++++++ .++++++++++++++ .++++++++++++++ .++++++++++++++",
" .++++++++++++++ .++++++++++++++ .++++++++++++++ .++++++++++++++",
" .++++++++++++++ .++++++++++++++ .++++++++++++++ .++++++++++++++",
" .++++++++++++++ .++++++++++++++ .++++++++++++++ .++++++++++++++",
" .++++++++++++++ .++++++++++++++ .++++++++++++++ .++++++++++++++",
" .++++++++++++++ .++++++++++++++ .++++++++++++++ .++++++++++++++",
" .++++++++++++++ .++++++++++++++ .++++++++++++++ .++++++++++++++",
" ............... ............... ............... ...............",
"                                                                ",
" .++++++++++++++ .+++++++++++++@@@@@++++++++++++ .++++++++++++++",
" .++++++++++++++ .++++++++++++@#@@@@@+++++++++++ .++++++++++++++",
" .++++++++++++++ .++++++++++++#@#@$$@+++++++++++ .++++++++++++++",
" .++++++++++++++ .++++++++++++##@%$%@+++++++++++ .++++++++++++++",
" .++++++++++++++ .++++++++++++#$@&&&++++++++++++ .++++++++++++++",
" .++++++++++++++ .++++++++++++*$&&&&++++++++++++ .++++++++++++++",
" .++++++++++++++ .+++++++++++***$&&*+++%%%%%=+++ .++++++++++++++",
" .++++++++++++++ .++++++++++--**$$&;=+%%%%%%%=++ .++++++++++++++",
" .++++++++++++++ .+++++++++**-*;*$$;*=%%%%%%%=++ .++++++++++++++",
" .++++++++++++++ .++++++++***;-*;*$*;>%---->%=++ .++++++++++++++",
" .++++++++++++++ .++++++++**;;--*;;;*=*%%-%%%=++ .++++++++++++++",
" .++++++++++++++ .+++++++**;;----***->***$%%%=++ .++++++++++++++",
" .++++++++++++++ .+++++++**;+------->****$%%%=++ .++++++++++++++",
" .++++++++++++++ .+++++++*;;++--->>>++%%%-%%%>++ .++++++++++++++",
" ............... ......%%*;..%-->>==..%---->%=.. ...............",
"                        %$$%% -->==>  %%%%%%%>                  ",
" .++++++++++++++ .+++++++$%%++;*;;;;++%%%%%%%>++ .++++++++++++++",
" .++++++++++++++ .+++++++%%%,+**;*;;+++%%%%%>+++ .++++++++++++++",
" .++++++++++++++ .+++++++%+,,,-*;*;>>+++++++++++ .++++++++++++++",
" .++++++++++++++ .++++++%+++,,,***;>==++++++++++ .++++++++++++++",
" .++++++++++++++ .++++++++++>,,,;*;>>==+++++++++ .++++++++++++++",
" .++++++++++++++ .+++++++++;;-,,,**->>;;++++++++ .++++++++++++++",
" .++++++++++++++ .++++++++;';--,,,;--*;'++++++++ .++++++++++++++",
" .++++++++++++++ .++++++++;;**+*,,,+*-;;++++++++ .++++++++++++++",
" .++++++++++++++ .++++++++>--++* ,,,-->+++++++++ .++++++++++++++",
" .++++++++++++++ .+++++++;*-+++* *,,,>++++++++++ .++++++++++++++",
" .++++++++++++++ .++++++;**+++++ .+,,,++++++++++ .++++++++++++++",
" .++++++++++++++ .++++++**++++++ .**,,,+++++++++ .++++++++++++++",
" .++++++++++++++ .+++++;*+++++++ .*;+,,,++++++++ .++++++++++++++",
" .++++++++++++++ .++++;**+++++++ .**;+,,,+++++++ .++++++++++++++",
" ............... ............... ............... ...............",
"                                                                ",
" .++++++++++++++ .++++++++++++++ .++++++++++++++ .++++++++++++++",
" .++++++++++++++ .++++++++++++++ .++++++++++++++ .++++++++++++++",
" .++++++++++++++ .++++++++++++++ .++++++++++++++ .++++++++++++++",
" .++++++++++++++ .++++++++++++++ .++++++++++++++ .++++++++++++++",
" .++++++++++++++ .++++++++++++++ .++++++++++++++ .++++++++++++++",
" .++++++++++++++ .++++++++++++++ .++++++++++++++ .++++++++++++++",
" .++++++++++++++ .++++++++++++++ .++++++++++++++ .++++++++++++++",
" .++++++++++++++ .++++++++++++++ .++++++++++++++ .++++++++++++++",
" .++++++++++++++ .++++++++++++++ .++++++++++++++ .++++++++++++++",
" .++++++++++++++ .++++++++++++++ .++++++++++++++ .++++++++++++++",
" .++++++++++++++ .++++++++++++++ .++++++++++++++ .++++++++++++++",
" .++++++++++++++ .++++++++++++++ .++++++++++++++ .++++++++++++++",
" .++++++++++++++ .++++++++++++++ .++++++++++++++ .++++++++++++++",
" .++++++++++++++ .++++++++++++++ .++++++++++++++ .++++++++++++++",
" ............... ............... ............... ...............",
"                                                                "};
