/* XPM */
static char *wall[] = {
/* width height num_colors chars_per_pixel */
"16 16 4 1",
/* colors */
". c #4A4A4A",
"X c #5A5A5A",
"o c #3A3A3A",
"O c #6A6A6A",
/* pixels */
"XXXXooooXXXXoooo",
"XXXXooooXXXXoooo",
"XXXXooooXXXXoooo",
"XXXXooooXXXXoooo",
"ooooXXXXooooXXXX",
"ooooXXXXooooXXXX",
"ooooXXXXooooXXXX",
"ooooXXXXooooXXXX",
"XXXXooooXXXXoooo",
"XXXXooooXXXXoooo",
"XXXXooooXXXXoooo",
"XXXXooooXXXXoooo",
"ooooXXXXooooXXXX",
"ooooXXXXooooXXXX",
"ooooXXXXooooXXXX",
"ooooXXXXooooXXXX"
};
