/* XPM */
static char * wall_xpm[] = {
"32 32 2 1",
" 	c #71627D",
".	c #5B455F",
"      .        .        .      .",
"      .        .        .      .",
"      .        .        .      .",
"................................",
"  .       .        .        .   ",
"  .       .        .        .   ",
"  .       .        .        .   ",
"................................",
"      .        .        .      .",
"      .        .        .      .",
"      .        .        .      .",
"................................",
"  .       .        .        .   ",
"  .       .        .        .   ",
"  .       .        .        .   ",
"................................",
"      .        .        .      .",
"      .        .        .      .",
"      .        .        .      .",
"................................",
"  .       .        .        .   ",
"  .       .        .        .   ",
"  .       .        .        .   ",
"................................",
"      .        .        .      .",
"      .        .        .      .",
"      .        .        .      .",
"................................",
"                                ",
"                                ",
"                                ",
"................................"};
